<?xml version="1.0" encoding="UTF-8"?>
<svg xmlns="http://www.w3.org/2000/svg" version="1.1" xmlns:xlink="http://www.w3.org/1999/xlink" viewBox="0 0 500 500">
  <defs>
    <style>
      .cls-1 {
        fill: #fff;
      }

      .cls-2 {
        fill: url(#Degradado_sin_nombre_3);
      }
    </style>
    <radialGradient id="Degradado_sin_nombre_3" data-name="Degradado sin nombre 3" cx="114.78" cy="427.04" fx="114.78" fy="427.04" r="446.53" gradientUnits="userSpaceOnUse">
      <stop offset="0" stop-color="#f9ed41"/>
      <stop offset=".24" stop-color="#ff833d"/>
      <stop offset=".4" stop-color="#ee5468"/>
      <stop offset=".49" stop-color="#e7407b"/>
      <stop offset="1" stop-color="#0028ff"/>
    </radialGradient>
  </defs>
  <!-- Generator: Adobe Illustrator 28.6.0, SVG Export Plug-In . SVG Version: 1.2.0 Build 709)  -->
  <g>
    <g id="Elements">
      <rect class="cls-2" x="138.18" y="137.78" width="214.19" height="214.19" rx="62.21" ry="62.21"/>
      <g>
        <path class="cls-1" d="M268.69,305.28h-46.83c-20.39,0-36.99-16.59-36.99-36.99v-46.83c0-20.39,16.59-36.99,36.99-36.99h46.83c20.4,0,36.99,16.59,36.99,36.99v46.83c0,20.39-16.59,36.99-36.99,36.99ZM221.86,193.52c-15.41,0-27.94,12.53-27.94,27.94v46.83c0,15.41,12.53,27.94,27.94,27.94h46.83c15.41,0,27.94-12.53,27.94-27.94v-46.83c0-15.41-12.53-27.94-27.94-27.94h-46.83Z"/>
        <path class="cls-1" d="M245.27,275.44c-16.85,0-30.56-13.71-30.56-30.56s13.71-30.56,30.56-30.56,30.56,13.71,30.56,30.56-13.71,30.56-30.56,30.56ZM245.27,223.58c-11.74,0-21.29,9.55-21.29,21.3s9.55,21.3,21.29,21.3,21.3-9.55,21.3-21.3-9.55-21.3-21.3-21.3Z"/>
        <path class="cls-1" d="M287.11,210.99c0,4.39-3.56,7.96-7.96,7.96s-7.96-3.56-7.96-7.96,3.56-7.96,7.96-7.96,7.96,3.56,7.96,7.96Z"/>
      </g>
    </g>
  </g>
</svg>