<?xml version="1.0" encoding="UTF-8"?>
<svg xmlns="http://www.w3.org/2000/svg" version="1.1" viewBox="0 0 500 500">
  <defs>
    <style>
      .cls-1 {
        fill: #fff;
        fill-rule: evenodd;
      }

      .cls-2 {
        fill: red;
      }
    </style>
  </defs>
  <!-- Generator: Adobe Illustrator 28.6.0, SVG Export Plug-In . SVG Version: 1.2.0 Build 709)  -->
  <g>
    <g id="OBJECTS">
      <g>
        <path class="cls-2" d="M350.28,329.63s-75.21,2.1-100.28,2.1-100.28-2.1-100.28-2.1c-19.42,0-35.32-15.89-35.32-35.32,0,0-2.1-44.19-2.1-58.95s2.1-58.95,2.1-58.95c0-19.42,15.89-35.32,35.32-35.32,0,0,75.21-2.1,100.28-2.1s100.28,2.1,100.28,2.1c19.42,0,35.32,15.89,35.32,35.32,0,0,2.1,44.15,2.1,58.95s-2.1,58.95-2.1,58.95c0,19.42-15.89,35.32-35.32,35.32Z"/>
        <polygon class="cls-1" points="223.62 278.43 223.62 192.3 293.2 235.36 223.62 278.43"/>
      </g>
    </g>
  </g>
</svg>